<svg xmlns="http://www.w3.org/2000/svg" xmlns:xlink="http://www.w3.org/1999/xlink" version="1.1" x="0px" y="0px" viewBox="0 0 100 125" xml:space="preserve">
	<style type="text/css">
		.st0{fill:#ffffff;fill-rule:evenodd;clip-rule:evenodd;}
		.st0:hover{fill:#00ff00}
	</style>
	<path class="st0" d="M85.986,50c0-2.669,4.054-2.669,4.054,0c0,30.75-33.256,49.875-59.759,34.849  c-4.43-2.512-8.335-5.846-11.507-9.794l-0.698,6.092c-0.302,2.648-4.325,2.189-4.023-0.459l1.306-11.405  c0.127-1.111,1.13-1.908,2.241-1.782l11.404,1.306c2.648,0.303,2.189,4.326-0.459,4.023l-7.013-0.803  c13.255,17.103,38.546,18.785,53.913,3.419C81.957,68.934,85.986,59.937,85.986,50L85.986,50z M82.29,18.853l-0.744,6.497  c-3.228-4.125-7.246-7.601-11.827-10.198C43.216,0.125,9.96,19.249,9.96,50c0,2.669,4.055,2.669,4.055,0  c0-9.937,4.028-18.934,10.54-25.446c15.35-15.35,40.608-13.69,53.877,3.373l-6.611-0.757c-2.648-0.303-3.107,3.72-0.459,4.023  l10.655,1.22c1.462,0.313,2.818-0.192,2.99-1.696l1.306-11.405C86.615,16.664,82.592,16.205,82.29,18.853z"/>
</svg> 